#!OML:ASF F:\VICON\USERDATA\Patient Classification 1\PLAYGROUND\JustinFriday\JustinFriday.ASF
:FULLY-SPECIFIED
:DEGREES
1692
root -21.8258 17.4235 7.7138 350.612 65.1003 -4.22754
lowerback 11.3338 1.53837 0.0522152
upperback 0.645 2.24895 2.62545
thorax -5.78952 1.15592 2.36069
lowerneck -11.7801 -0.589351 -1.56721
upperneck -0.274292 -0.504777 0.0560229
head 1.93276 -0.224592 0.262468
rclavicle -1.06474e-014 1.86858e-014
rhumerus 46.6841 5.69425 -37.2479
rradius 65.164
rwrist -4.86
rhand -22.5895 -372.527
rfingers 7.12502
rthumb 3.83954 -402.472
lclavicle -1.06474e-014 1.86858e-014
lhumerus 50.6013 4.34194 39.0758
lradius 53.4909
lwrist -9.75458
lhand -28.878 -14.9659
lfingers 7.12502
lthumb -2.2339 15.0021
rfemur -22.8939 6.38909 12.9642
rtibia 38.7758
rfoot -8.48388 -12.2222
rtoes 15.209
lfemur 4.76344 -0.0184643 -26.8587
ltibia 20.7905
lfoot -12.1776 -12.7757
ltoes 25.3229
1693
root -21.7381 17.3973 7.79176 350.892 65.8749 -4.07104
lowerback 11.3357 1.4158 -0.0219978
upperback 0.576109 2.07009 2.52427
thorax -5.85403 1.06829 2.32493
lowerneck -12.8714 -0.46446 -4.13863
upperneck 0.403992 -0.0640042 3.15342
head 2.39005 0.0880801 1.75665
rclavicle 4.46644e-015 1.03368e-014
rhumerus 48.4438 5.07424 -37.065
rradius 64.5823
rwrist -4.92304
rhand -22.6633 -372.749
rfingers 7.12502
rthumb 3.76827 -402.695
lclavicle 4.46644e-015 1.03368e-014
lhumerus 51.6046 5.01832 37.6181
lradius 53.118
lwrist -8.57819
lhand -29.1973 -14.2478
lfingers 7.12502
lthumb -2.54225 15.7168
rfemur -22.9377 5.7706 13.0011
rtibia 36.2431
rfoot -6.7601 -12.9395
rtoes 6.39042
lfemur 5.15024 0.000703673 -26.8571
ltibia 20.4318
lfoot -12.2485 -13.2504
ltoes 24.4262
1694
root -21.6469 17.421 7.86866 350.819 66.6363 -4.30945
lowerback 11.297 1.3074 0.0888615
upperback 0.555191 1.93705 2.47787
thorax -5.84319 0.999235 2.23578
lowerneck -12.4633 -0.646589 -2.71339
upperneck -0.00838749 -0.451563 1.43038
head 2.1612 -0.156439 0.907801
rclavicle 3.46631e-014 8.34896e-015
rhumerus 50.0548 4.47345 -36.6938
rradius 64.173
rwrist -5.05056
rhand -23.1209 -373.524
rfingers 7.12502
rthumb 3.32637 -403.478
lclavicle 3.46631e-014 8.34896e-015
lhumerus 52.9044 5.87423 36.8555
lradius 52.3325
lwrist -7.96006
lhand -29.0485 -14.0816
lfingers 7.12502
lthumb -2.39859 15.8847
rfemur -22.9495 7.17176 12.4157
rtibia 33.8695
rfoot -10.1587 -12.5336
rtoes 23.3649
lfemur 5.6455 -0.655478 -26.767
ltibia 19.9681
lfoot -12.261 -13.6851
ltoes 24.1342
1695
root -21.5558 17.4293 7.94981 351.077 67.2708 -4.22262
lowerback 11.1679 1.44985 -0.0589462
upperback 0.533345 2.10105 2.41471
thorax -5.8033 1.08242 2.22843
lowerneck -13.8259 -0.663702 -5.81406
upperneck 0.680009 -0.112684 5.14834
head 2.70317 0.13865 2.75807
rclavicle 1.96176e-014 1.74931e-014
rhumerus 51.1895 3.50851 -36.0469
rradius 63.752
rwrist -5.37969
rhand -23.5323 -374.071
rfingers 7.12502
rthumb 2.92906 -404.031
lclavicle 1.96176e-014 1.74931e-014
lhumerus 54.8182 6.57795 36.8313
lradius 50.9993
lwrist -7.44328
lhand -28.5488 -15.3248
lfingers 7.12502
lthumb -1.91592 14.6464
rfemur -23.1319 6.80397 12.4545
rtibia 31.5797
rfoot -9.33755 -13.129
rtoes 20.5506
lfemur 6.14612 -1.32602 -26.7923
ltibia 19.4281
lfoot -11.8779 -13.886
ltoes 24.9478
1696
root -21.4641 17.4332 8.03038 351.903 67.8946 -3.57246
lowerback 10.942 1.52964 -0.542846
upperback 0.518996 2.14279 2.41242
thorax -5.7113 1.11509 2.49728
lowerneck -13.1279 -0.916467 -3.08884
upperneck 0.488611 -0.75071 1.76015
head 2.4654 -0.295491 1.06899
rclavicle -4.37761e-014 -2.06736e-014
rhumerus 52.5962 2.642 -35.4417
rradius 63.1512
rwrist -5.883
rhand -23.8287 -374.159
rfingers 7.12502
rthumb 2.64281 -404.122
lclavicle -4.37761e-014 -2.06736e-014
lhumerus 56.2741 7.19372 36.6218
lradius 50.1064
lwrist -6.59228
lhand -28.7989 -14.545
lfingers 7.12502
lthumb -2.15746 15.4238
rfemur -23.3615 6.05817 12.3176
rtibia 29.4673
rfoot -8.50731 -13.0326
rtoes 18.0006
lfemur 6.64371 -1.27346 -26.8603
ltibia 18.7739
lfoot -11.3875 -14.6018
ltoes 25.5281
1697
root -21.3722 17.4449 8.09751 351.634 68.5403 -4.04436
lowerback 10.7859 1.56449 -0.446853
upperback 0.564596 2.20439 2.48005
thorax -5.57795 1.14364 2.50801
lowerneck -13.1818 -1.07549 -2.3368
upperneck 0.485246 -1.03944 0.985605
head 2.46498 -0.462528 0.665604
rclavicle -3.02153e-014 1.59028e-014
rhumerus 53.9301 1.62744 -34.9986
rradius 62.4479
rwrist -6.25089
rhand -24.1014 -373.905
rfingers 7.12502
rthumb 2.37946 -403.872
lclavicle -3.02153e-014 1.59028e-014
lhumerus 58.0272 7.7089 37.0539
lradius 48.9029
lwrist -6.42528
lhand -29.2345 -14.4609
lfingers 7.12502
lthumb -2.57817 15.5033
rfemur -23.5017 5.85521 12.415
rtibia 27.5169
rfoot -9.20489 -12.7031
rtoes 20.4102
lfemur 7.09335 -1.36231 -26.5082
ltibia 18.3582
lfoot -11.2379 -15.2906
ltoes 25.9134
1698
root -21.279 17.4481 8.16269 350.599 69.1532 -5.248
lowerback 10.7884 1.5745 0.0771134
upperback 0.585264 2.2856 2.51538
thorax -5.54259 1.17142 2.23653
lowerneck -13.6721 -1.26952 -3.99461
upperneck 0.555264 -1.09715 2.72657
head 2.62348 -0.431417 1.53108
rclavicle 3.21161e-014 -2.10712e-014
rhumerus 55.1268 0.729816 -34.7024
rradius 61.7483
rwrist -6.33031
rhand -24.4693 -373.708
rfingers 7.12502
rthumb 2.02407 -403.678
lclavicle 3.21161e-014 -2.10712e-014
lhumerus 59.9649 8.05517 37.5511
lradius 47.5453
lwrist -6.44862
lhand -29.5314 -14.5854
lfingers 7.12502
lthumb -2.86489 15.3751
rfemur -23.5157 4.7255 13.2288
rtibia 25.6297
rfoot -8.92574 -12.4449
rtoes 16.6022
lfemur 7.4675 -1.80145 -25.9729
ltibia 18.244
lfoot -11.1012 -15.7731
ltoes 26.8818
1699
root -21.1813 17.4441 8.23782 350.258 69.742 -5.67404
lowerback 10.7909 1.42918 0.168846
upperback 0.543578 2.10936 2.5802
thorax -5.57986 1.08388 2.27996
lowerneck -14.6681 -1.25257 -8.24652
upperneck 1.05631 -0.553243 7.73156
head 2.71282 0.0405885 3.66949
rclavicle -1.42504e-014 -6.75868e-015
rhumerus 56.7366 0.391727 -34.5712
rradius 60.9783
rwrist -6.07724
rhand -24.7129 -373.814
rfingers 7.12502
rthumb 1.78883 -403.786
lclavicle -1.42504e-014 -6.75868e-015
lhumerus 60.5175 8.86862 36.8739
lradius 47.1461
lwrist -5.63545
lhand -29.468 -13.5986
lfingers 7.12502
lthumb -2.80368 16.3628
rfemur -23.4583 3.77195 13.6232
rtibia 23.8811
rfoot -9.76486 -11.5261
rtoes 16.5456
lfemur 7.81195 -2.09249 -25.7768
ltibia 18.2617
lfoot -11.1757 -16.2723
ltoes 27.0801
1700
root -21.0816 17.4321 8.31155 350.185 70.3557 -5.90689
lowerback 10.668 1.18146 -0.15653
upperback 0.456524 1.76426 2.93002
thorax -5.61016 0.929457 2.88756
lowerneck -13.7099 -1.11263 -6.02823
upperneck 0.646805 -0.629255 4.10886
head 2.68832 -0.160084 2.40423
rclavicle -4.02912e-014 1.27222e-014
rhumerus 58.7924 0.41637 -34.2762
rradius 60.1388
rwrist -5.80029
rhand -24.6803 -374.474
rfingers 7.12502
rthumb 1.82037 -404.446
lclavicle -4.02912e-014 1.27222e-014
lhumerus 60.0754 10.0316 35.9456
lradius 47.087
lwrist -4.42098
lhand -29.1425 -12.9391
lfingers 7.12502
lthumb -2.48932 17.0261
rfemur -23.6325 1.69933 14.3831
rtibia 22.3442
rfoot -8.86481 -10.4035
rtoes 7.73803
lfemur 7.99804 -2.34073 -25.674
ltibia 18.4455
lfoot -11.5269 -16.7659
ltoes 26.4978
